<svg xmlns="http://www.w3.org/2000/svg" width="85" height="60" viewBox="0 0 85 60">
<g>
<path d="M 58.73 54.36 C55.02,56.65 52.62,57.34 47.27,57.61 C37.32,58.11 31.96,55.93 25.27,48.67 C21.13,44.19 18.00,36.57 18.00,31.00 C18.00,20.36 26.75,8.62 36.93,5.61 C43.66,3.62 47.25,3.59 53.57,5.47 C70.76,10.60 77.72,32.72 66.69,47.19 C64.90,49.54 61.32,52.76 58.73,54.36 ZM 43.69 40.35 C45.14,41.80 46.51,40.20 46.81,36.73 C47.09,33.35 47.35,33.09 50.81,32.81 C55.90,32.38 55.89,29.62 50.80,29.19 C47.24,28.90 47.10,28.74 46.80,24.69 C46.38,18.85 43.62,18.85 43.20,24.70 C42.89,28.85 42.85,28.89 38.70,29.20 C32.81,29.62 32.85,32.38 38.75,32.81 C42.82,33.10 43.00,33.25 43.00,36.39 C43.00,38.19 43.31,39.98 43.69,40.35 Z" fill="rgb(13,61,56)"/>
<path d="M 43.69 40.35 C43.31,39.98 43.00,38.19 43.00,36.39 C43.00,33.25 42.82,33.10 38.75,32.81 C32.85,32.38 32.81,29.62 38.70,29.20 C42.85,28.89 42.89,28.85 43.20,24.70 C43.62,18.85 46.38,18.85 46.80,24.69 C47.10,28.74 47.24,28.90 50.80,29.19 C55.89,29.62 55.90,32.38 50.81,32.81 C47.35,33.09 47.09,33.35 46.81,36.73 C46.51,40.20 45.14,41.80 43.69,40.35 Z" fill="rgb(199,166,76)"/>
<path d="M 0.00 30.00 L 0.00 0.00 L 42.50 0.00 L 85.00 0.00 L 85.00 30.00 L 85.00 60.00 L 42.50 60.00 L 0.00 60.00 L 0.00 30.00 ZM 58.73 54.36 C61.32,52.76 64.90,49.54 66.69,47.19 C77.72,32.72 70.76,10.60 53.57,5.47 C47.25,3.59 43.66,3.62 36.93,5.61 C26.75,8.62 18.00,20.36 18.00,31.00 C18.00,36.57 21.13,44.19 25.27,48.67 C31.96,55.93 37.32,58.11 47.27,57.61 C52.62,57.34 55.02,56.65 58.73,54.36 Z" fill="rgb(253,250,246)"/>
</g>
</svg>